<svg xmlns="http://www.w3.org/2000/svg" width="606.049" height="391.379" viewBox="0 0 606.049 391.379">
  <g id="Grupo_29107" data-name="Grupo 29107" transform="translate(1225.232 -3826.16)">
    <path id="Trazado_23149" data-name="Trazado 23149" d="M-749.009,3841.423c-100.562-20.156-197.477-18.339-299.063-6.174-54.655,6.545-120.236,15.585-148.307,65.169-19.672,34.747,3.532,44.221,16.045,72.262,12.172,27.276-13.022,44.583-26.847,65.582-14.713,22.345-24.2,56.878-13.409,81.922,42.336,98.289,225.243,101.7,318.874,95.387,81.671-5.507,241.712-1.158,276.6-88.829,18.513-46.522-12.24-94.226-12.157-141.155.053-30.5,8.5-60.653-10.614-88.45C-670.779,3863.84-708.572,3849.529-749.009,3841.423Z" fill="#a3def5" opacity="0.6" style="mix-blend-mode: multiply;isolation: isolate"/>
    <path id="Trazado_23150" data-name="Trazado 23150" d="M-765.968,4770.292v-12.125h-9.7c-.17-1.077-.388-2.139-.641-3.185l9.05-3.574-4.452-11.276-9.159,3.615a41.328,41.328,0,0,0-2.528-3.786l6.989-6.989-8.573-8.573-7.055,7.055q-1.529-1.116-3.16-2.094l3.832-9.229-11.2-4.649-3.85,9.272c-1.235-.3-2.489-.555-3.764-.743v-10.048H-822.3v10.048c-1.037.153-2.059.353-3.069.582l-3.688-9.344-11.277,4.452,3.673,9.3a41.3,41.3,0,0,0-3.777,2.45l-7.055-7.055-8.573,8.573,6.989,6.989q-1.153,1.53-2.16,3.171l-9.1-3.778-4.649,11.2,8.985,3.731q-.5,1.906-.808,3.884H-866.5v12.125h9.578q.227,1.648.582,3.255l-8.874,3.5,4.452,11.276,8.768-3.461a41.24,41.24,0,0,0,2.568,3.981l-6.638,6.64,8.573,8.573,6.572-6.573q1.622,1.22,3.363,2.284l-3.553,8.557,11.2,4.649,3.534-8.512a40.758,40.758,0,0,0,4.08.815v9.214h12.125v-9.214c1.14-.168,2.262-.391,3.37-.652l3.388,8.581,11.277-4.452-3.405-8.624a41.129,41.129,0,0,0,3.991-2.646l6.573,6.573,8.573-8.573-6.638-6.64q1.183-1.618,2.207-3.355l8.7,3.613,4.649-11.2-8.8-3.655q.466-1.946.744-3.958Zm-50.265,17.68a23.743,23.743,0,0,1-23.743-23.743,23.743,23.743,0,0,1,23.743-23.743,23.743,23.743,0,0,1,23.743,23.743A23.743,23.743,0,0,1-816.234,4787.972Z" transform="translate(-262.809 -650.408)" fill="#cdc6de" opacity="0.6" style="mix-blend-mode: multiply;isolation: isolate"/>
    <path id="Trazado_23151" data-name="Trazado 23151" d="M-62.676,3981.471v-12.124h-9.695c-.171-1.078-.389-2.138-.641-3.186l9.051-3.573-4.453-11.277-9.159,3.617a41.224,41.224,0,0,0-2.528-3.786l6.989-6.989-8.573-8.573-7.054,7.055q-1.529-1.116-3.16-2.094l3.832-9.228-11.2-4.651-3.85,9.273q-1.852-.456-3.765-.744v-10.046H-119v10.046c-1.037.154-2.059.354-3.069.583l-3.689-9.344-11.277,4.451,3.673,9.3a41.01,41.01,0,0,0-3.777,2.449l-7.055-7.055-8.573,8.573,6.989,6.989q-1.153,1.53-2.16,3.17l-9.1-3.777-4.65,11.2,8.985,3.732q-.5,1.906-.808,3.884h-9.695v12.124h9.578q.227,1.649.582,3.254l-8.874,3.5,4.452,11.277,8.768-3.462a41.16,41.16,0,0,0,2.568,3.983l-6.638,6.638,8.573,8.573,6.572-6.572c1.081.813,2.2,1.577,3.363,2.282l-3.553,8.558,11.2,4.649,3.534-8.512a40.929,40.929,0,0,0,4.081.816v9.214h12.124v-9.214c1.141-.168,2.263-.391,3.371-.653l3.387,8.581,11.277-4.452-3.405-8.623a41.314,41.314,0,0,0,3.992-2.646l6.572,6.572,8.573-8.573-6.638-6.638q1.183-1.618,2.207-3.355l8.7,3.611,4.649-11.2-8.8-3.655q.466-1.946.745-3.959Zm-50.265,17.681a23.743,23.743,0,0,1-23.743-23.743,23.744,23.744,0,0,1,23.743-23.744A23.744,23.744,0,0,1-89.2,3975.409,23.743,23.743,0,0,1-112.942,3999.152Z" transform="translate(-778.043 -72.516)" fill="#cdc6de" opacity="0.6" style="mix-blend-mode: multiply;isolation: isolate"/>
    <path id="Trazado_23152" data-name="Trazado 23152" d="M406.007,4756.061v-12.4h-4.89a43.472,43.472,0,0,0-.887-4.525l4.519-1.854-4.711-11.475-4.539,1.863a43.871,43.871,0,0,0-2.706-4.061l3.47-3.471-8.771-8.771-3.476,3.476a44.034,44.034,0,0,0-3.822-2.558l1.9-4.539-11.445-4.783-1.9,4.535a43.6,43.6,0,0,0-4.781-.944v-4.93h-12.4v4.93a43.5,43.5,0,0,0-4.51.88l-1.868-4.551-11.475,4.71,1.87,4.554a43.993,43.993,0,0,0-4.062,2.7l-3.476-3.476-8.771,8.771,3.47,3.471a43.917,43.917,0,0,0-2.568,3.82l-4.524-1.89-4.783,11.444,4.5,1.882a43.811,43.811,0,0,0-.955,4.795h-4.889v12.4h4.878a43.79,43.79,0,0,0,.88,4.533l-4.5,1.847,4.71,11.475,4.5-1.846a43.8,43.8,0,0,0,2.708,4.084l-3.429,3.43,8.771,8.771,3.424-3.425a43.733,43.733,0,0,0,3.842,2.58l-1.866,4.465,11.445,4.784,1.861-4.453a43.858,43.858,0,0,0,4.816.954v4.837h12.4v-4.837a43.839,43.839,0,0,0,4.545-.887l1.834,4.466,11.475-4.71-1.839-4.479a43.837,43.837,0,0,0,4.083-2.719l3.424,3.425,8.771-8.771-3.43-3.43a43.588,43.588,0,0,0,2.57-3.843l4.48,1.872,4.783-11.444-4.482-1.874a43.462,43.462,0,0,0,.944-4.8Zm-48.238,20.766a26.921,26.921,0,1,1,26.921-26.921A26.921,26.921,0,0,1,357.769,4776.827Z" transform="translate(-1124.374 -641.367)" fill="#cdc6de" opacity="0.6" style="mix-blend-mode: multiply;isolation: isolate"/>
    <path id="Trazado_23153" data-name="Trazado 23153" d="M-270.566,4892.443v-12.8h-5.044a44.926,44.926,0,0,0-.916-4.668l4.662-1.914-4.86-11.838-4.682,1.922a45.346,45.346,0,0,0-2.791-4.19l3.58-3.581-9.049-9.05-3.586,3.586a45.091,45.091,0,0,0-3.943-2.638l1.958-4.684-11.807-4.934-1.956,4.678a45.043,45.043,0,0,0-4.933-.974v-5.086h-12.8v5.086a44.855,44.855,0,0,0-4.654.907l-1.927-4.7-11.839,4.86,1.93,4.7a45.388,45.388,0,0,0-4.191,2.781l-3.586-3.586-9.049,9.05,3.58,3.581a45.017,45.017,0,0,0-2.649,3.941l-4.667-1.95-4.935,11.807,4.649,1.942a44.789,44.789,0,0,0-.985,4.946H-370.1v12.8h5.032a45.055,45.055,0,0,0,.908,4.676l-4.642,1.906,4.86,11.838,4.638-1.9a45.292,45.292,0,0,0,2.794,4.212l-3.538,3.539,9.049,9.05,3.533-3.533a45.308,45.308,0,0,0,3.964,2.663l-1.926,4.6,11.808,4.936,1.919-4.593a45.052,45.052,0,0,0,4.969.984v4.991h12.8v-4.991a45.1,45.1,0,0,0,4.689-.917l1.892,4.609,11.839-4.86-1.9-4.622a45.444,45.444,0,0,0,4.213-2.806l3.532,3.533,9.049-9.05-3.538-3.539a45.079,45.079,0,0,0,2.651-3.965l4.623,1.933,4.935-11.808-4.624-1.933a44.97,44.97,0,0,0,.974-4.956Zm-49.767,21.424a27.775,27.775,0,0,1-27.775-27.775,27.775,27.775,0,0,1,27.775-27.774,27.775,27.775,0,0,1,27.776,27.774A27.776,27.776,0,0,1-320.333,4913.868Z" transform="translate(-626.472 -740.016)" fill="#a3def5" opacity="0.6" style="mix-blend-mode: multiply;isolation: isolate"/>
    <g id="Grupo_29106" data-name="Grupo 29106" transform="translate(-1173.494 3882.025)">
      <g id="Grupo_29054" data-name="Grupo 29054" transform="translate(30.515 111.857)">
        <g id="Grupo_29044" data-name="Grupo 29044" transform="translate(1.649 3.312)">
          <g id="Grupo_29043" data-name="Grupo 29043">
            <g id="Grupo_29042" data-name="Grupo 29042">
              <path id="Trazado_23154" data-name="Trazado 23154" d="M-875.085,4500.235c-5.754-14.8-9.133-15.192-13.82-21.7-6.863-9.532-21.021-17.2-22.538-9.764-.743,3.643,26.342,31.333,30.633,36.838C-878.751,4504.7-877.37,4501.729-875.085,4500.235Z" transform="translate(911.458 -4465.787)" fill="#e29faa"/>
            </g>
          </g>
        </g>
        <g id="Grupo_29046" data-name="Grupo 29046">
          <g id="Grupo_29045" data-name="Grupo 29045">
            <path id="Trazado_23155" data-name="Trazado 23155" d="M-885.749,4498.691c-3.729-4.536-19.041-22.666-20.63-24.28-9.254-9.408-13.595-13.324-9.97-18.956,4.106-6.379,15.49,3.363,23.214,11.853,5.1,5.605,7.53,8.683,14.549,20.329C-877.4,4491.552-881.5,4500.026-885.749,4498.691Z" transform="translate(917.624 -4453.4)" fill="#e56e6b"/>
          </g>
        </g>
        <g id="Grupo_29049" data-name="Grupo 29049" transform="translate(29.678 23.543)">
          <g id="Grupo_29048" data-name="Grupo 29048">
            <g id="Grupo_29047" data-name="Grupo 29047">
              <path id="Trazado_23156" data-name="Trazado 23156" d="M-802.479,4560.2c-1.31-.9-4.737-4.151-4.07-6.4.559-1.888,1.5-2.133,1.5-2.132a180.773,180.773,0,0,1,26.882-9.812c7.628-2.037,3.34,4.16,3.34,4.16C-782.309,4550.671-788.983,4555.675-802.479,4560.2Z" transform="translate(806.634 -4541.445)" fill="#e29faa"/>
            </g>
          </g>
        </g>
        <path id="Trazado_23157" data-name="Trazado 23157" d="M-696.3,4522.754c-1.595,1.727-3.078,3.582-2.744,4.251l.067.133.534-.212s-.448.367.208-.083l.162-.065a1.6,1.6,0,0,0-.169,1.837c1.246,2.085,4.337.363,5.922-.33a19.217,19.217,0,0,0,3.6-2.2c1.322-.97,2.436-4.1,1.014-5.408-1.457-1.343-2.591,1.4-3.771.313-.655-.6.459-3.188-1.487-1.624C-693.337,4519.749-694.865,4521.2-696.3,4522.754Z" transform="translate(757.529 -4501.364)" fill="#e29faa"/>
        <g id="Grupo_29051" data-name="Grupo 29051" transform="translate(29.639 24.29)">
          <g id="Grupo_29050" data-name="Grupo 29050">
            <path id="Trazado_23158" data-name="Trazado 23158" d="M-779.941,4544.239c-7.473,2.085-16.872,4.52-26.155,8.7-1.29,2.608,0,1.021-.561,2.909-.667,2.252,1.5,8.617,2.808,9.517,12.21-4.1,19.961-11.178,26.655-15.444Z" transform="translate(806.781 -4544.239)" fill="#e56e6b"/>
          </g>
        </g>
        <g id="Grupo_29053" data-name="Grupo 29053" transform="translate(53.269 24.29)">
          <g id="Grupo_29052" data-name="Grupo 29052">
            <path id="Trazado_23159" data-name="Trazado 23159" d="M-715.13,4551.719c.915-.639,1.806-1.243,2.677-1.8l-2.747-5.682c-1.034.289-2.108.6-3.21.935Z" transform="translate(718.41 -4544.239)" fill="#fff"/>
          </g>
        </g>
      </g>
      <g id="Grupo_29072" data-name="Grupo 29072" transform="translate(281.299 20.532)">
        <g id="Grupo_29065" data-name="Grupo 29065" transform="translate(122.067 59.928)">
          <g id="Grupo_29064" data-name="Grupo 29064">
            <path id="Trazado_23160" data-name="Trazado 23160" d="M648.721,4485.5a26.432,26.432,0,0,0-3.622,13.834c-.026,6.47-5.293,1.663-4.539,14.427.5,8.491-3.838,32.446-2.771,40.881l33.327-1.334c-.825-4.929-5.357-51.434-5.63-53.728-.754-6.35-3.448-13.5-8.153-18.452-.091-.1-3,2.28-3.371,2.5a14.22,14.22,0,0,1-4.3,1.723C649.424,4485.4,649.086,4485.451,648.721,4485.5Z" transform="translate(-594.603 -4442.314)" fill="#fff"/>
            <g id="Grupo_29060" data-name="Grupo 29060" transform="translate(0 17.997)">
              <g id="Grupo_29057" data-name="Grupo 29057" transform="translate(5.466 9.05)">
                <g id="Grupo_29056" data-name="Grupo 29056">
                  <g id="Grupo_29055" data-name="Grupo 29055">
                    <path id="Trazado_23161" data-name="Trazado 23161" d="M509.83,4464.549c1.225-.269,8.254,2.5,8.895.553.537-1.631-.916-4.306-.915-4.3a191.064,191.064,0,0,0-16.625-22.294c-3.734-4.034-3.992,2.115-3.992,2.115C499.617,4446.619,503.656,4456.7,509.83,4464.549Z" transform="translate(-497.193 -4437.134)" fill="#e29faa"/>
                  </g>
                </g>
              </g>
              <g id="Grupo_29059" data-name="Grupo 29059" transform="translate(15.769 25.882)">
                <g id="Grupo_29058" data-name="Grupo 29058">
                  <path id="Trazado_23162" data-name="Trazado 23162" d="M543.138,4501.941c4.8-.369,11.011,0,12.879-.308,10.886-1.771,21.259-3.009,22.178,1.974,1.041,5.646-10.507,9.324-19.939,10.42-8.2.952-13.89-.127-22.531-.8C536.27,4509.779,539.8,4504.126,543.138,4501.941Z" transform="translate(-535.726 -4500.081)" fill="#fff"/>
                </g>
              </g>
              <path id="Trazado_23163" data-name="Trazado 23163" d="M479.247,4403.334a4.322,4.322,0,0,1,1.485.481,15.684,15.684,0,0,1,4.195,5.882c.3.782,4.472,10.841,4.689,10.8l-4.607-.152c-2.813-3.915-6.237-7.46-7.943-12.015C476.41,4406.57,476.626,4402.833,479.247,4403.334Z" transform="translate(-476.753 -4403.288)" fill="#e29faa"/>
            </g>
            <g id="Grupo_29063" data-name="Grupo 29063" transform="translate(25.982)">
              <path id="Trazado_23164" data-name="Trazado 23164" d="M676.281,4356.557a16.293,16.293,0,0,0,3.88,5.854,15.8,15.8,0,0,1,3.071,3.954c1.085,2.053,1.982,6.805.843,8.883-1.335,2.435-3.688,2.545-2.105,5.825.872,1.807,3.273,3.579,2.471,5.951-1.4,4.123-8.125,2.691-11,2.449-2.431-.2-5.148.532-7.488-.345-1.488-.558-1.958-1.711-3.1-2.63-1.193-.956-2.767-1.491-4-2.479-1.269-1.016-3.1-1.814-4.159-3.041-2.972-3.444-2.246-10.518-3.788-14.737a69.666,69.666,0,0,1-2.987-9.548,22.639,22.639,0,0,1-.014-9.051c.26-1.322.467-3.41,1.193-4.555,3.858-6.095,12.351-6.576,18.489-4.237,4.747,1.809,6.159,6.5,6.957,11.071A33.083,33.083,0,0,0,676.281,4356.557Z" transform="translate(-627.788 -4337.131)" fill="#2c5392"/>
              <g id="Grupo_29062" data-name="Grupo 29062" transform="translate(35.001 17.411)">
                <g id="Grupo_29061" data-name="Grupo 29061">
                  <path id="Trazado_23165" data-name="Trazado 23165" d="M708.916,4405.009c-.354,1.77-2.917,4.135-3.562,2.62a9.241,9.241,0,0,1-.39-4.734c.354-1.769.058-2,1.672-1.674A3.133,3.133,0,0,1,708.916,4405.009Z" transform="translate(-704.817 -4401.097)" fill="#e29faa"/>
                </g>
              </g>
              <path id="Trazado_23166" data-name="Trazado 23166" d="M678.4,4434.9c-.273-3.568-10.734,3.065-10.734,3.065l1.119,13.615s.109-.546,5.254-.425c3.136.074,5.8-.077,5.639-3.005C679.579,4446.334,678.492,4436.13,678.4,4434.9Z" transform="translate(-642.597 -4407.675)" fill="#e29faa"/>
              <path id="Trazado_23167" data-name="Trazado 23167" d="M678.555,4438.337c-1.481,4.781-5.73,8.229-10.18,7.874l-.712-8.252s10.461-6.634,10.734-3.065c.029.379.151,1.6.309,3.16A.818.818,0,0,0,678.555,4438.337Z" transform="translate(-642.597 -4407.673)" fill="#de8076"/>
              <path id="Trazado_23168" data-name="Trazado 23168" d="M646.63,4387.024c3.454,1.64,9.013-.365,10.915-3.536a9.916,9.916,0,0,0,1.445-6.007c-.167-2.419-.873-4.575-1.06-7a15,15,0,0,0-.485-3.114,8.733,8.733,0,0,0-2.769-4.2c-1.294-1.084-2.995-1.386-4.572-1.906a12.005,12.005,0,0,0-4.282-.927c-.987.06-1.49.777-2.158,1.451-3.626,3.657-4.333,10.19-3.3,15.046C641.128,4380.444,643.077,4385.336,646.63,4387.024Z" transform="translate(-622.279 -4353.814)" fill="#e29faa"/>
              <path id="Trazado_23169" data-name="Trazado 23169" d="M653.186,4752.074c.326,6.8,2.363,11.27,3.841,15.14,7.7,20.163,13.277,39.283,16.537,44.77,3.566,6,14.079-4.783,14.079-4.783s-14.506-60.1-17.851-63.963S652.924,4746.62,653.186,4752.074Z" transform="translate(-631.988 -4633.542)" fill="#e29faa"/>
              <path id="Trazado_23170" data-name="Trazado 23170" d="M653.187,4752.972c.326,6.8,2.363,11.27,3.841,15.14,7.7,20.163,13.277,39.283,16.537,44.771,3.566,6,14.962-2.343,14.962-2.343s-12.875-62.176-16.22-66.039S652.926,4747.519,653.187,4752.972Z" transform="translate(-631.989 -4634.44)" fill="#25467c"/>
              <path id="Trazado_23171" data-name="Trazado 23171" d="M736.454,5006.665s2.66,8.632,23.5,34.332c2.787,3.436,3.9-1.535,3.9-1.535s-16.243-38.347-19.013-42.034S736.454,5006.665,736.454,5006.665Z" transform="translate(-692.993 -4820.076)" fill="#e29faa"/>
              <path id="Trazado_23172" data-name="Trazado 23172" d="M736.623,5021.306c-7.327-13.292-9.914-30.464-9.914-30.464s12.552-5.489,15.322-1.8c1.4,1.861,6.45,12.924,11.176,23.614C749.528,5014.48,736.659,5021.289,736.623,5021.306Z" transform="translate(-685.854 -4813.482)" fill="#25467c"/>
              <path id="Trazado_23173" data-name="Trazado 23173" d="M612.507,4760.9c-3.809,5.645-4.852,10.443-5.984,14.43-5.9,20.759-8.873,36.692-9.546,43.039-.735,6.942,10.143,7.318,10.143,7.318s24.347-56.83,23.978-61.926S615.561,4756.379,612.507,4760.9Z" transform="translate(-590.786 -4645.503)" fill="#e29faa"/>
              <path id="Trazado_23174" data-name="Trazado 23174" d="M597.582,5029.53s-1.489,9.228,6.554,41.325c1.075,4.292,4.439-.025,4.439-.025s1.378-35.822.424-40.333S597.582,5029.53,597.582,5029.53Z" transform="translate(-591.175 -4843.107)" fill="#e29faa"/>
              <path id="Trazado_23175" data-name="Trazado 23175" d="M584.694,5031.873c-2.638-19.7,1.352-40.018,1.352-40.018s12.025.355,12.979,4.868c.537,2.541,4.721,25,4.867,35.15Z" transform="translate(-581.152 -4816.478)" fill="#2c5392"/>
              <path id="Trazado_23176" data-name="Trazado 23176" d="M593.985,4757.013a244.972,244.972,0,0,1,6.213-26.243c2.9-9.794,5.346-18.383,9.364-27.75,1.031-2.405-.331-12.624,1.24-13.665,3.662-2.428,13.023.535,18.016,1.521a8.409,8.409,0,0,1,2.975,1.487c1.677,1.057,3.892,6.753,4.461,8.652a20.785,20.785,0,0,1-2.369,16c-2.2,3.515-4.28,7.106-6.3,10.727-1.738,3.111-3.89,5.887-5.675,9.014-3.98,6.971-6.57,14.554-9.475,22.05-.982,2.536-7.225,14.563-7.253,16.322-.152,9.308-8.473-3.917-11.33-4.751-1.645-.481-1.549-.785-1.45-2.557.076-1.353.272-2.7.473-4.036Q593.38,4760.389,593.985,4757.013Z" transform="translate(-587.422 -4594.181)" fill="#2c5392"/>
              <path id="Trazado_23177" data-name="Trazado 23177" d="M651.469,4538.036c-.807-16.11-3.94-39.81-1.909-42.1,3.574-4.034,3.742-12.847,6.329-16.081,3.867-4.833,7.209-7.1,12.043-.108,1.64,2.373,3.665,16.6,4.052,18.373.857,3.936,1.182,23.552,2.153,39.353Z" transform="translate(-628.841 -4438.061)" fill="#e29faa"/>
              <path id="Trazado_23178" data-name="Trazado 23178" d="M647.513,4542.29c-.835-11.8-1.63-21.557-2.655-28.53-.31-2.112-.954-4.158-1.3-6.239-.324-1.926.59-4.577,1.365-6.314.79-1.773,1.619-3.545,2.371-5.337.74-1.763,1.316-3.588,1.893-5.408.18-.567,1.138-4.691,1.707-4.738.062-.007,2.218-.19,3.07-.374a14.211,14.211,0,0,0,4.3-1.723c.368-.218,3.28-2.594,3.371-2.5,4.706,4.949,7.4,12.1,8.154,18.452.272,2.294-.138,37.34.687,42.269Z" transform="translate(-624.885 -4442.314)" fill="#55b8eb"/>
              <path id="Trazado_23179" data-name="Trazado 23179" d="M669.21,4485.5a26.43,26.43,0,0,0-3.622,13.834c-.023,5.816.2,11.685.547,17.489.5,8.491,1.85,28.4,2.916,36.833l22.553-.348c-.825-4.929-5.357-51.434-5.63-53.728-.753-6.35-3.448-13.5-8.153-18.452-.091-.1-3,2.28-3.371,2.5a14.22,14.22,0,0,1-4.3,1.723C669.913,4485.4,669.575,4485.451,669.21,4485.5Z" transform="translate(-641.075 -4442.314)" fill="#fff"/>
              <path id="Trazado_23180" data-name="Trazado 23180" d="M669.21,4485.5a26.43,26.43,0,0,0-3.622,13.834c-.023,5.816.2,11.685.547,17.489.5,8.491,1.85,28.4,2.916,36.833l22.553-.348c-.825-4.929-5.357-51.434-5.63-53.728-.753-6.35-3.448-13.5-8.153-18.452-.091-.1-3,2.28-3.371,2.5a14.22,14.22,0,0,1-4.3,1.723C669.913,4485.4,669.575,4485.451,669.21,4485.5Z" transform="translate(-641.075 -4442.314)" fill="#fff"/>
              <path id="Trazado_23181" data-name="Trazado 23181" d="M641.774,4336.046a31.461,31.461,0,0,0-7.57,1.915c-.406.674-2.267,1.533-3.089,2.373a9.611,9.611,0,0,0-2.484,3.9c-.711,2.2-1.057,5.51-.089,7.652.991,2.19,3.524,1.245,5.76,1.244,2.522,0,4.9-.434,7.412-.558.172-1.412,1.673-3.992,2.515-1.75.75,2-.183,4.881,1.785,5.874,1.9.96,2.724-.45,3.043-2.214q-.122.675.29-1.019c.6-2.479.586-4.5,2.026-6.661,1.265-1.9,1.761-5.341.435-7.336-1.554-2.339-5.362-3.343-8-3.466A15.01,15.01,0,0,0,641.774,4336.046Z" transform="translate(-613.5 -4335.984)" fill="#2c5392"/>
              <path id="Trazado_23182" data-name="Trazado 23182" d="M575.864,5185.669c1.269-.186,1.664-.01,2.936-.218a13.018,13.018,0,0,0,3.623-1.208,25.209,25.209,0,0,0,3.726-2.47,3.089,3.089,0,0,1,.37-.253,4.669,4.669,0,0,0,4.54-.038.667.667,0,0,0,.352-.3.867.867,0,0,1,.144.147,2.838,2.838,0,0,1,.416,1.354,30.3,30.3,0,0,1,.355,5.225c-.247,1.185-6.695,2.6-8.81,2.728a32.5,32.5,0,0,1-7.836-.159C572.937,5190.027,573.715,5185.983,575.864,5185.669Z" transform="translate(-573.92 -4955.175)" fill="#203c6c"/>
              <path id="Trazado_23183" data-name="Trazado 23183" d="M784.151,5155.538c1.125-.616,1.557-.588,2.676-1.226a12.986,12.986,0,0,0,2.977-2.394,25.078,25.078,0,0,0,2.634-3.611,3.288,3.288,0,0,1,.259-.365,4.665,4.665,0,0,0,4.244-1.615.674.674,0,0,0,.225-.408.876.876,0,0,1,.186.087,2.84,2.84,0,0,1,.861,1.125,30.38,30.38,0,0,1,2.15,4.775c.181,1.2-5.374,4.763-7.312,5.622a32.425,32.425,0,0,1-7.4,2.576C782.922,5160.643,782.245,5156.58,784.151,5155.538Z" transform="translate(-727.143 -4929.346)" fill="#203c6c"/>
            </g>
          </g>
        </g>
        <path id="Trazado_23184" data-name="Trazado 23184" d="M137.961,4236.137l41-23.7-23.575-40.787c.229-.143.493-.3.585-.357,2.214-1.3,5.579-.89,6.856-.952a17.712,17.712,0,0,0,18.266-26.117l.005,0c-.016-.028-.033-.053-.049-.079s-.029-.055-.045-.082l0,0a17.712,17.712,0,0,0-31.749,2.792c-.691,1.074-2.011,4.2-4.246,5.465-.094.053-.364.2-.6.329l-23.576-40.786L20.249,4170l58.133,100.574,41.092-23.751c0-.015-.007-.03-.009-.045l-.34.2a4.635,4.635,0,0,0-.237-.49c-1.266-2.236-4.39-3.555-5.466-4.247a17.713,17.713,0,0,1-2.791-31.749l0,0,.082-.044.079-.049,0,0a17.712,17.712,0,0,1,26.117,18.266c.062,1.277-.352,4.643.952,6.856a4.977,4.977,0,0,0,.307.451l-.368.212A1.4,1.4,0,0,1,137.961,4236.137Z" transform="translate(-20.249 -4111.866)" fill="#3b73b9"/>
        <g id="Grupo_29071" data-name="Grupo 29071" transform="translate(111.286 101.951)">
          <g id="Grupo_29068" data-name="Grupo 29068" transform="translate(9.061 5.972)">
            <g id="Grupo_29067" data-name="Grupo 29067">
              <g id="Grupo_29066" data-name="Grupo 29066">
                <path id="Trazado_23185" data-name="Trazado 23185" d="M493.033,4535.2c.972-.793,4.8,3.866,10.846-2.532,1.179-1.249-5.424-4.421-5.423-4.419a191.273,191.273,0,0,0-24.9-12.374c-5.154-1.91-2.605,3.69-2.605,3.69C475.82,4523.818,483.979,4530.985,493.033,4535.2Z" transform="translate(-470.317 -4515.475)" fill="#e29faa"/>
              </g>
            </g>
          </g>
          <g id="Grupo_29070" data-name="Grupo 29070" transform="translate(34.778 4.965)">
            <g id="Grupo_29069" data-name="Grupo 29069">
              <path id="Trazado_23186" data-name="Trazado 23186" d="M567.508,4523.126c4.447-1.85,38.271-14.952,40.7-10.5,2.751,5.038-1.164,10.173-15.692,16.121-7.641,3.128-15.721,3.979-24.14,6.035C567.817,4531.331,565.021,4526.243,567.508,4523.126Z" transform="translate(-566.493 -4511.706)" fill="#e0e1e3"/>
            </g>
          </g>
          <path id="Trazado_23187" data-name="Trazado 23187" d="M437.827,4493.4a4.3,4.3,0,0,1,1.542-.242,15.666,15.666,0,0,1,6.4,3.352c.625.56,8.889,7.648,9.063,7.51l-4.179,1.946c-4.278-2.221-8.935-3.835-12.515-7.127C436.758,4497.569,435.262,4494.138,437.827,4493.4Z" transform="translate(-436.431 -4493.14)" fill="#e29faa"/>
        </g>
      </g>
      <g id="Grupo_29105" data-name="Grupo 29105" transform="translate(0)">
        <path id="Trazado_23188" data-name="Trazado 23188" d="M-718.327,4291.488v-47.352h-47.109c-.009-.27-.016-.58-.017-.686-.022-2.57,2.022-5.275,2.607-6.412a17.642,17.642,0,0,0,3.969-11.173,17.715,17.715,0,0,0-17.44-17.711v0l-.093,0-.093,0v0a17.715,17.715,0,0,0-17.44,17.711,17.642,17.642,0,0,0,3.969,11.173c.586,1.137,2.63,3.842,2.607,6.412,0,.106-.007.417-.017.686h-47.109V4360.3h116.167V4312.84c-.014,0-.029-.009-.043-.015v.392a4.7,4.7,0,0,0-.544-.04c-2.569-.022-5.275,2.021-6.412,2.606a17.643,17.643,0,0,1-11.173,3.97,17.715,17.715,0,0,1-17.711-17.44h-.006c0-.031,0-.062,0-.093s0-.062,0-.093h.006a17.714,17.714,0,0,1,17.711-17.44,17.642,17.642,0,0,1,11.173,3.969c1.136.585,3.842,2.629,6.412,2.606a4.815,4.815,0,0,0,.544-.04v.425A1.282,1.282,0,0,1-718.327,4291.488Z" transform="translate(887.238 -4161.871)" fill="#60a2d5"/>
        <g id="Grupo_29088" data-name="Grupo 29088" transform="translate(158.462)">
          <path id="Trazado_23189" data-name="Trazado 23189" d="M173.271,4363.788a11.97,11.97,0,0,1,.653,1.98c.978,4.263-.644,10.6-1.364,14.912-1.143,5.428,7.636,9.84,11.223,12.577,4.8,3.662,6.728,8.774,6.232,15.052-.435,5.5-4.22,11.755-9.423,14.059-3.377,1.5-7.169.416-10.1,3.091-3.049,2.783-3.217,9.013-8.933,6.164-3.783-1.886-6.466-8.235-8.673-11.627-3.536-5.437-4.312-12.217-8.011-17.533-4-5.754-9.51-6.073-6.3-14.4,1.582-4.1-.77-7.769-1.774-11.733-1.171-4.617-.1-8.923,1.862-13.028,1.122-2.344.7-4.749,2.045-7.047,1.456-2.491,2.685-4.738,5.222-6.319,5.371-3.347,13.979-1.81,18.347,2.471C167.268,4355.341,171.468,4359.535,173.271,4363.788Z" transform="translate(17.561 -4264.414)" fill="#de544f"/>
          <g id="Grupo_29075" data-name="Grupo 29075" transform="translate(107.404 128.808)">
            <g id="Grupo_29074" data-name="Grupo 29074" transform="translate(0)">
              <g id="Grupo_29073" data-name="Grupo 29073">
                <path id="Trazado_23190" data-name="Trazado 23190" d="M-14.126,4531.462c1.161-.912,4.144-4.126,3.393-6.174-.63-1.716-1.519-1.889-1.517-1.887-4.773-1.793-9.613-3.415-14.516-4.814-1.551-.442-5.115-2.131-6.674-1.734-1.963.5-3.125,3.516-4.029,5.092,1.343-.1,3.258,1.51,4.484,2.153,1.719.9,3.458,1.77,5.228,2.568A88.131,88.131,0,0,0-14.126,4531.462Z" transform="translate(37.47 -4516.793)" fill="#e29faa"/>
              </g>
            </g>
          </g>
          <g id="Grupo_29077" data-name="Grupo 29077" transform="translate(127.771 128.733)">
            <g id="Grupo_29076" data-name="Grupo 29076" transform="translate(0)">
              <path id="Trazado_23191" data-name="Trazado 23191" d="M44.821,4522.1c4.861-1,11.255-1.422,13.126-1.974,10.9-3.211,21.344-5.814,22.926-.837,1.791,5.637-9.541,10.884-19.041,13.218-8.26,2.032-14.216,1.66-23.135,2.084C38.809,4531,41.692,4524.765,44.821,4522.1Z" transform="translate(-38.697 -4516.511)" fill="#87cbed"/>
            </g>
          </g>
          <g id="Grupo_29079" data-name="Grupo 29079" transform="translate(173.359 101.628)">
            <g id="Grupo_29078" data-name="Grupo 29078" transform="translate(0)">
              <path id="Trazado_23192" data-name="Trazado 23192" d="M213.411,4419.178c-.365,1.823-3.005,4.259-3.671,2.7a9.518,9.518,0,0,1-.4-4.877c.364-1.825.059-2.058,1.721-1.726A3.229,3.229,0,0,1,213.411,4419.178Z" transform="translate(-209.188 -4415.146)" fill="#e29faa"/>
            </g>
          </g>
          <path id="Trazado_23193" data-name="Trazado 23193" d="M181.966,4449.974c-.281-3.677-11.06,3.157-11.06,3.157l1.154,14.029s.112-.563,5.413-.437c3.231.075,5.971-.079,5.81-3.1C183.183,4461.759,182.063,4451.245,181.966,4449.974Z" transform="translate(-7.783 -4338.237)" fill="#e29faa"/>
          <path id="Trazado_23194" data-name="Trazado 23194" d="M182.128,4453.52c-1.525,4.927-5.9,8.479-10.489,8.114l-.733-8.5s10.779-6.833,11.06-3.157c.029.389.156,1.646.318,3.255A.83.83,0,0,0,182.128,4453.52Z" transform="translate(-7.783 -4338.237)" fill="#de8076"/>
          <path id="Trazado_23195" data-name="Trazado 23195" d="M149.235,4400.648c3.559,1.689,9.287-.376,11.246-3.643a10.221,10.221,0,0,0,1.489-6.19c-.171-2.493-.9-4.713-1.092-7.216a15.472,15.472,0,0,0-.5-3.208,9,9,0,0,0-2.853-4.326c-1.334-1.117-3.086-1.428-4.711-1.964a12.379,12.379,0,0,0-4.411-.955c-1.017.062-1.536.8-2.224,1.494-3.736,3.769-4.465,10.5-3.4,15.5C143.565,4393.869,145.573,4398.911,149.235,4400.648Z" transform="translate(13.151 -4282.742)" fill="#e29faa"/>
          <path id="Trazado_23196" data-name="Trazado 23196" d="M155.99,4776.772c.336,7.007,2.434,11.611,3.957,15.6,7.931,20.775,13.68,40.475,17.038,46.129,3.674,6.183,14.507-4.929,14.507-4.929s-14.946-61.925-18.392-65.9S155.721,4771.153,155.99,4776.772Z" transform="translate(3.147 -4570.955)" fill="#e29faa"/>
          <path id="Trazado_23197" data-name="Trazado 23197" d="M155.992,4777.7c.336,7.007,2.434,11.611,3.957,15.6,7.931,20.775,13.68,40.475,17.038,46.129,3.674,6.182,15.416-2.416,15.416-2.416s-13.266-64.062-16.712-68.042S155.722,4772.078,155.992,4777.7Z" transform="translate(3.145 -4571.879)" fill="#25467c"/>
          <path id="Trazado_23198" data-name="Trazado 23198" d="M241.784,5039.087s2.741,8.894,24.215,35.373c2.872,3.542,4.018-1.581,4.018-1.581s-16.735-39.511-19.589-43.309S241.784,5039.087,241.784,5039.087Z" transform="translate(-59.709 -4763.147)" fill="#e29faa"/>
          <path id="Trazado_23199" data-name="Trazado 23199" d="M241.956,5054.174c-7.549-13.7-10.215-31.388-10.215-31.388s12.933-5.657,15.787-1.857c1.441,1.917,6.646,13.315,11.515,24.329C255.253,5047.142,241.994,5054.157,241.956,5054.174Z" transform="translate(-52.351 -4756.355)" fill="#25467c"/>
          <path id="Trazado_23200" data-name="Trazado 23200" d="M114.077,4785.868c-3.925,5.814-5,10.76-6.166,14.867-6.078,21.389-9.142,37.806-9.835,44.345-.757,7.152,10.451,7.54,10.451,7.54s25.086-58.556,24.706-63.806S117.223,4781.206,114.077,4785.868Z" transform="translate(45.6 -4583.278)" fill="#e29faa"/>
          <path id="Trazado_23201" data-name="Trazado 23201" d="M98.7,5062.648s-1.534,9.507,6.753,42.577c1.109,4.422,4.574-.025,4.574-.025s1.42-36.909.437-41.558S98.7,5062.648,98.7,5062.648Z" transform="translate(45.199 -4786.879)" fill="#e29faa"/>
          <path id="Trazado_23202" data-name="Trazado 23202" d="M85.419,5065.059c-2.718-20.3,1.393-41.231,1.393-41.231s12.389.366,13.372,5.016c.554,2.617,4.865,25.754,5.015,36.216Z" transform="translate(55.526 -4759.44)" fill="#2c5392"/>
          <path id="Trazado_23203" data-name="Trazado 23203" d="M94.992,4781.862a252.42,252.42,0,0,1,6.4-27.04c2.984-10.09,5.508-18.94,9.647-28.592,1.063-2.477-.341-13,1.278-14.08,3.773-2.5,13.418.551,18.563,1.568a8.7,8.7,0,0,1,3.064,1.532c1.728,1.088,4.011,6.958,4.6,8.915a21.414,21.414,0,0,1-2.441,16.481c-2.269,3.621-4.41,7.322-6.495,11.052-1.791,3.206-4.009,6.066-5.847,9.287-4.1,7.183-6.769,15-9.763,22.719-1.013,2.614-7.444,15.006-7.474,16.817-.157,9.59-8.73-4.037-11.673-4.9-1.695-.494-1.6-.808-1.494-2.634.078-1.394.281-2.779.487-4.159Q94.369,4785.341,94.992,4781.862Z" transform="translate(49.066 -4530.401)" fill="#2c5392"/>
          <path id="Trazado_23204" data-name="Trazado 23204" d="M154.22,4556.241c-.831-16.6-4.058-41.019-1.966-43.381,3.683-4.156,3.856-13.238,6.521-16.568,3.985-4.982,7.428-7.321,12.409-.112,1.689,2.444,3.776,17.1,4.174,18.929.883,4.057,1.218,24.268,2.219,40.546Z" transform="translate(6.39 -4369.542)" fill="#e29faa"/>
          <path id="Trazado_23205" data-name="Trazado 23205" d="M150.144,4560.623c-.86-12.157-1.68-22.212-2.735-29.4-.319-2.177-.982-4.284-1.343-6.429-.334-1.985.607-4.716,1.406-6.506.814-1.827,1.668-3.653,2.443-5.5.762-1.817,1.355-3.7,1.951-5.573.185-.583,1.171-4.833,1.759-4.883.064,0,2.285-.194,3.163-.384a14.662,14.662,0,0,0,4.431-1.775c.378-.226,3.379-2.673,3.473-2.575,4.848,5.1,7.624,12.471,8.4,19.012.28,2.363-.142,38.474.708,43.552Z" transform="translate(10.465 -4373.924)" fill="#fff"/>
          <path id="Trazado_23206" data-name="Trazado 23206" d="M169.222,4538.433c-.219-7.379.006-14.851,2.185-21.962a75.173,75.173,0,0,1,8.014-17.23,18.851,18.851,0,0,1,2.236-1.637c4.848,5.1,7.624,12.471,8.4,19.012.281,2.363,5.384,45.855,6.233,50.934l-23.216,4.457C171.832,4564.313,169.452,4546.176,169.222,4538.433Z" transform="translate(-6.501 -4373.924)" fill="#87cbed"/>
          <g id="Grupo_29082" data-name="Grupo 29082" transform="translate(138.414 157.901)">
            <g id="Grupo_29081" data-name="Grupo 29081" transform="translate(0)">
              <g id="Grupo_29080" data-name="Grupo 29080">
                <path id="Trazado_23207" data-name="Trazado 23207" d="M104.138,4644.688c1.271-.75,4.652-3.544,4.177-5.673-.4-1.784-1.257-2.072-1.255-2.07a167.84,167.84,0,0,0-24.279-10.8c-6.937-2.371-3.358,3.642-3.358,3.642C86.06,4634.577,91.925,4639.636,104.138,4644.688Z" transform="translate(-78.5 -4625.594)" fill="#e29faa"/>
              </g>
            </g>
          </g>
          <g id="Grupo_29085" data-name="Grupo 29085" transform="translate(162.941 133.883)">
            <g id="Grupo_29084" data-name="Grupo 29084" transform="translate(0)">
              <g id="Grupo_29083" data-name="Grupo 29083">
                <path id="Trazado_23208" data-name="Trazado 23208" d="M170.569,4578.563c.445.451,5.947,2.881,6.958.629a209.309,209.309,0,0,0,8.413-21.879c3.1-9.28,3.3-20.6-2.548-21.508-5.159-.8-7.033,13.256-9.019,24.444-.422,2.379-1.843,5.149-3.566,12.8C170.808,4573.054,169.673,4577.105,170.569,4578.563Z" transform="translate(-170.225 -4535.772)" fill="#e29faa"/>
              </g>
            </g>
          </g>
          <g id="Grupo_29087" data-name="Grupo 29087" transform="translate(162.953 133.592)">
            <g id="Grupo_29086" data-name="Grupo 29086" transform="translate(0)">
              <path id="Trazado_23209" data-name="Trazado 23209" d="M170.272,4568.25c1.275-4.795,3.745-10.709,4.086-12.63,1.986-11.187,4.313-21.7,9.472-20.895,5.845.911,5.489,13.393,3.344,22.938-1.866,8.3-4.854,13.466-8.451,21.639C175.554,4577.6,171.261,4572.238,170.272,4568.25Z" transform="translate(-170.272 -4534.683)" fill="#fff"/>
            </g>
          </g>
          <path id="Trazado_23210" data-name="Trazado 23210" d="M168.28,4350.552a14.23,14.23,0,0,0-1.733,1.639,11.136,11.136,0,0,0-3.269,4.666,20.461,20.461,0,0,0-.65,3.909,6.4,6.4,0,0,0,2.492,5.849,10.062,10.062,0,0,0,4.745,1.86,6.194,6.194,0,0,1,2.767.942c.533.416.612,1.168,1.117,1.548,1.726,1.3,1.718-1.477,1.879-2.366q-.127.7.3-1.049c.617-2.554.6-4.641,2.087-6.863,1.3-1.951,1.815-5.5.449-7.557-1.542-2.322-5.849-3.029-8.391-3.046A3.048,3.048,0,0,0,168.28,4350.552Z" transform="translate(-1.696 -4265.853)" fill="#de544f"/>
          <path id="Trazado_23211" data-name="Trazado 23211" d="M76.322,5223.526c1.308-.191,1.714-.011,3.025-.225a13.377,13.377,0,0,0,3.734-1.246,25.808,25.808,0,0,0,3.839-2.545,3.266,3.266,0,0,1,.38-.26,4.811,4.811,0,0,0,4.678-.039.7.7,0,0,0,.363-.314.892.892,0,0,1,.149.149,2.939,2.939,0,0,1,.429,1.4,31.306,31.306,0,0,1,.366,5.384c-.254,1.22-6.9,2.675-9.078,2.81a33.363,33.363,0,0,1-8.074-.163C73.306,5228.016,74.108,5223.849,76.322,5223.526Z" transform="translate(62.977 -4902.35)" fill="#203c6c"/>
          <path id="Trazado_23212" data-name="Trazado 23212" d="M290.928,5192.476c1.159-.634,1.6-.6,2.757-1.263a13.341,13.341,0,0,0,3.068-2.465,25.931,25.931,0,0,0,2.714-3.721,3.263,3.263,0,0,1,.267-.376,4.81,4.81,0,0,0,4.373-1.664.692.692,0,0,0,.231-.42.886.886,0,0,1,.191.089,2.93,2.93,0,0,1,.887,1.159,31.335,31.335,0,0,1,2.216,4.922c.186,1.232-5.537,4.906-7.534,5.791a33.405,33.405,0,0,1-7.627,2.654C289.661,5197.736,288.964,5193.55,290.928,5192.476Z" transform="translate(-94.894 -4875.732)" fill="#203c6c"/>
          <path id="Trazado_23213" data-name="Trazado 23213" d="M140.238,4364.379a22.71,22.71,0,0,1,3.044-8.84,13.78,13.78,0,0,1,5.2-4.809,8.775,8.775,0,0,1,3.977-1.008c1.5,2.959-1.31,7.13-2.636,9.819-.9,1.823-2.459,2.285-3.781,3.571a29.586,29.586,0,0,0-2.558,3.316,18.358,18.358,0,0,0-2.633,3.419C139.642,4369.293,140.06,4365.411,140.238,4364.379Z" transform="translate(14.843 -4265.57)" fill="#de544f"/>
          <path id="Trazado_23214" data-name="Trazado 23214" d="M-41.6,4512.236c.449-2.192,1.9-4.191,4.315-4.156,2.028.029,2.609,2.231,2.934,3.845.547,2.708.163,4.039-2.546,5.36C-40.736,4519.156-42.267,4515.483-41.6,4512.236Z" transform="translate(148.012 -4381.601)" fill="#e29faa"/>
          <path id="Trazado_23215" data-name="Trazado 23215" d="M-276.653,4085.247l-45.548-12.029c.06-.263.132-.563.159-.667.635-2.49,3.3-4.584,4.158-5.534a17.641,17.641,0,0,0,6.691-9.789,17.715,17.715,0,0,0-12.34-21.577l0,0-.09-.021c-.031-.009-.06-.019-.09-.027v.005a17.717,17.717,0,0,0-21.384,12.67,17.643,17.643,0,0,0,.984,11.817c.276,1.249,1.561,4.387.883,6.865-.029.1-.113.4-.191.659l-45.548-12.029L-401,4101.132c-.263-.059-.563-.131-.667-.158-2.49-.635-4.585-3.3-5.534-4.157a17.643,17.643,0,0,0-9.789-6.691,17.714,17.714,0,0,0-21.577,12.339h-.006c-.008.03-.013.06-.021.09s-.018.059-.027.089h.006a17.715,17.715,0,0,0,12.671,21.385,17.639,17.639,0,0,0,11.816-.985c1.248-.275,4.386-1.561,6.865-.882.1.028.4.113.659.191l-12.029,45.548,112.316,29.662Z" transform="translate(439.135 -4035.081)" fill="#de544f"/>
          <path id="Trazado_23216" data-name="Trazado 23216" d="M9.318,4625.52c3.233.575,5.313.835,5.313.835l2.294-1.409s-.612-.8-3.352-1.161c-1.065-.138-3.864-.625-3.347-1.543s5.131-.094,7.754-.365a7.485,7.485,0,0,1,3.1.516h0l8.287.7-.954,3.824-12.889,2.467-8.071-2.723S6.086,4624.945,9.318,4625.52Z" transform="translate(112.171 -4464.91)" fill="#e29faa"/>
        </g>
        <g id="Grupo_29104" data-name="Grupo 29104" transform="translate(0 68.248)">
          <g id="Grupo_29091" data-name="Grupo 29091" transform="translate(0.847)">
            <path id="Trazado_23217" data-name="Trazado 23217" d="M-981.276,4307.136a11.111,11.111,0,0,0-6.854,1.287,13.215,13.215,0,0,1-2.769,1.123c-3.629.972-4.443,6.4-4.16,9.523a27.381,27.381,0,0,0,1.333,5.059c1.266,4.314,4.789,8.688,9.7,8.47a11.635,11.635,0,0,0,8.283-4.314C-970.909,4322.148-972.2,4308.646-981.276,4307.136Z" transform="translate(1004.06 -4302.547)" fill="#2c5392"/>
            <path id="Trazado_23218" data-name="Trazado 23218" d="M-919.144,4998.5s-4.329,11.066,4.6,46.682c.715,2.851,2.936,2.67,4.125,1.751a2.474,2.474,0,0,0,.8-1.778s4.206-40.576,3.146-45.583S-919.144,4998.5-919.144,4998.5Z" transform="translate(949.175 -4808.056)" fill="#e29faa"/>
            <path id="Trazado_23219" data-name="Trazado 23219" d="M-929.993,4696.193h-20.683c0,.09,0,.183.005.272q.02,5.937.1,11.875c.136,10.012-.088,7.438.494,17.436.495,8.5,6.71,47.146,7.6,49.2.9,2.091.474,5.892,2.275,7.473,2.864,2.516,8.465,3.848,10.87.707,1.624-2.122.891-13,1.186-15.708.251-2.3.242-4.652.346-6.8.423-8.632-.162-17.284-.2-25.919C-928.049,4722.634-928.084,4710.952-929.993,4696.193Z" transform="translate(971.507 -4587.662)" fill="#253f69"/>
            <path id="Trazado_23220" data-name="Trazado 23220" d="M-885.737,5177.108c-1.409-.206-1.846-.011-3.257-.242a14.35,14.35,0,0,1-4.021-1.341,27.982,27.982,0,0,1-4.134-2.741,3.505,3.505,0,0,0-.41-.28c-1.905.879-3,.822-5.038-.042a.743.743,0,0,1-.39-.338.954.954,0,0,0-.16.162,3.158,3.158,0,0,0-.462,1.5,33.688,33.688,0,0,0-.393,5.8c.274,1.315,7.429,2.881,9.776,3.026a35.958,35.958,0,0,0,8.7-.176C-882.488,5181.944-883.352,5177.457-885.737,5177.108Z" transform="translate(937.349 -4936.331)" fill="#203c6c"/>
            <g id="Grupo_29090" data-name="Grupo 29090" transform="translate(13.324 19.349)">
              <g id="Grupo_29089" data-name="Grupo 29089">
                <path id="Trazado_23221" data-name="Trazado 23221" d="M-978.389,4367.735c.837,1.82,4.211,3.713,4.519,1.914a10.263,10.263,0,0,0-.8-5.211c-.837-1.819-.575-2.142-2.235-1.377A3.476,3.476,0,0,0-978.389,4367.735Z" transform="translate(978.751 -4362.672)" fill="#e29faa"/>
              </g>
            </g>
            <path id="Trazado_23222" data-name="Trazado 23222" d="M-962.483,4391.4c.3-3.96,11.911,3.4,11.911,3.4l-1.242,15.108s-.121-.606-5.83-.472c-3.479.082-5.645,1.177-5.471-2.073C-963.008,4405.357-962.588,4392.771-962.483,4391.4Z" transform="translate(980.627 -4363.514)" fill="#e29faa"/>
            <path id="Trazado_23223" data-name="Trazado 23223" d="M-961.394,4395.222c1.643,5.305,6.358,9.131,11.3,8.739l.79-9.158s-11.608-7.361-11.911-3.4c-.032.419.043-.819-.132.912C-961.281,4392.4-961.432,4395.1-961.394,4395.222Z" transform="translate(979.363 -4363.514)" fill="#de8076"/>
            <path id="Trazado_23224" data-name="Trazado 23224" d="M-952.3,4335.807c-3.307,2.658-9.823,1.922-12.691-1.012a11,11,0,0,1-3.1-6.112c-.442-2.655-.233-5.162-.657-7.833a16.669,16.669,0,0,1-.278-3.486,9.709,9.709,0,0,1,1.91-5.244c1.119-1.5,2.877-2.265,4.446-3.232a13.36,13.36,0,0,1,4.383-2.1c1.082-.188,1.809.456,2.7,1.012,4.854,3.017,7.3,9.886,7.434,15.392C-948.055,4327.289-948.9,4333.071-952.3,4335.807Z" transform="translate(984.965 -4302.355)" fill="#e29faa"/>
            <path id="Trazado_23225" data-name="Trazado 23225" d="M-965.8,4360.753c1.673,1.281,3.123,3.031,4.933,4.118,2.4,1.442,4.442,1.593,6.8.017a8.7,8.7,0,0,1,6.7-1.44c-.138,3.893-1.157,8.625-4.137,11.021-3.307,2.658-9.823,1.922-12.691-1.011a11.006,11.006,0,0,1-3.1-6.112c-.441-2.65-.234-5.154-.655-7.82A8.014,8.014,0,0,1-965.8,4360.753Z" transform="translate(984.162 -4341.018)" fill="#2c5392"/>
            <path id="Trazado_23226" data-name="Trazado 23226" d="M-1001.948,4992.617s4.329,11.065-4.6,46.681c-.714,2.851-2.936,2.67-4.125,1.751a2.475,2.475,0,0,1-.8-1.777s-2.144-41.312-1.085-46.318S-1001.948,4992.617-1001.948,4992.617Z" transform="translate(1017.055 -4803.374)" fill="#e29faa"/>
            <path id="Trazado_23227" data-name="Trazado 23227" d="M-1019.811,4696.193a9.836,9.836,0,0,0-.868,2.665c-1.777,13.508-1.752,22.478-1.8,34.678-.035,8.634.913,35.353,1.439,45.389.207,3.95,8.993,6.75,11.857,4.235a13.616,13.616,0,0,0,3.97-5.028c.891-2.06,4.127-48.02,4.621-56.522.582-10,.552-4.458.688-14.47q.073-5.474.091-10.947Z" transform="translate(1024.112 -4587.662)" fill="#253f69"/>
            <path id="Trazado_23228" data-name="Trazado 23228" d="M-968.8,4519.58c.9-17.875,4.371-44.176,2.117-46.719-3.966-4.477,1.654-1.109-1.216-4.7-4.291-5.364-17.638-10.963-23-3.2-1.819,2.633-.234,8.349-.664,10.32-.952,4.368-1.312,26.134-2.39,43.667Z" transform="translate(1003.215 -4415.461)" fill="#e29faa"/>
            <path id="Trazado_23229" data-name="Trazado 23229" d="M-991.076,4449.142c-.991-.347-7.42-1.715-8.585-1.926-1.359,1.229-3.02-.552-5.043-.634-2.109-.084-4.583,1.483-5.989.39a1.7,1.7,0,0,1-.211-.2c-1.038.057,1.7.143.632.237-2.8.319-11.354,4.4-13.153,5.509-7.367,4.544-4.72,10.929-4.563,13.526.414,6.9,1.07,61.508-.178,68.963h44.791c.757-.659-1.067-61.072-1.6-69.852C-985.686,4453.425-985.341,4451.158-991.076,4449.142Z" transform="translate(1028.578 -4404.794)" fill="#ea7c77"/>
            <path id="Trazado_23230" data-name="Trazado 23230" d="M-995.213,5178.756c-1.409-.2-1.847-.01-3.258-.242a14.339,14.339,0,0,1-4.021-1.341,27.829,27.829,0,0,1-4.134-2.739,3.362,3.362,0,0,0-.41-.281c-1.905.881-3,.822-5.038-.042a.747.747,0,0,1-.391-.339.979.979,0,0,0-.16.162,3.169,3.169,0,0,0-.462,1.5,33.763,33.763,0,0,0-.393,5.8c.273,1.315,7.429,2.881,9.777,3.028a36.076,36.076,0,0,0,8.695-.177C-991.965,5183.592-992.829,5179.1-995.213,5178.756Z" transform="translate(1017.552 -4937.538)" fill="#203c6c"/>
            <path id="Trazado_23231" data-name="Trazado 23231" d="M-909.7,5045.183c1.148-11.856,2.9-41.926,2.118-45.612-1.059-5.007-12.668-1.072-12.668-1.072s-5.18,11.09,4.018,46.417Z" transform="translate(950.281 -4808.056)" fill="#253f69"/>
            <path id="Trazado_23232" data-name="Trazado 23232" d="M-1008.161,5034.267c7.39-31.912,7.732-50.279,7.732-50.279s-16.424-6.065-16,3.2c.179,3.9.556,34.855,1.316,47.236Z" transform="translate(1019.682 -4797.073)" fill="#253f69"/>
            <path id="Trazado_23233" data-name="Trazado 23233" d="M-979.32,4431.635l7.5,3.537-3.2,7.822-11.02-4.8S-982.342,4431.9-979.32,4431.635Z" transform="translate(997.417 -4393.846)" fill="#fff"/>
            <path id="Trazado_23234" data-name="Trazado 23234" d="M-932.865,4439.312l4.444,6.932,3.434-4.515s-1.244-4-4-4.443Z" transform="translate(958.458 -4397.985)" fill="#fff"/>
            <path id="Trazado_23235" data-name="Trazado 23235" d="M-967.206,4292.121c-.143-1.924-1.3-1.946-2.962-1.7a46.535,46.535,0,0,1-4.869.8,25.223,25.223,0,0,1-5.235-.566,14.8,14.8,0,0,0-9.062,1.766c-4.2,2.2-6.76,9.48-6,14.264.252,1.58.869,1.208,2.075,2.263a6.9,6.9,0,0,0,1.973,1.329,5.3,5.3,0,0,0,2.1-.137c.262-.36.991.293,1.214.6.359.495.579,1.469,1.408,1.221.744-.222,1-1.17,1.077-1.834.162-1.413-.035-2.827.014-4.241.1-2.906,2.771-2.908,5.066-3.333,3.934-.725,7.55-1.281,10.834-3.889C-967.752,4297.222-967.04,4294.352-967.206,4292.121Z" transform="translate(1004.32 -4290.313)" fill="#2c5392"/>
          </g>
          <g id="Grupo_29094" data-name="Grupo 29094" transform="translate(1.902 53.556)">
            <g id="Grupo_29093" data-name="Grupo 29093">
              <g id="Grupo_29092" data-name="Grupo 29092">
                <path id="Trazado_23236" data-name="Trazado 23236" d="M-993.031,4529.355c-3.606-15.459-6.9-16.329-10.617-23.436-5.448-10.4-18.383-19.992-20.934-12.848-1.25,3.5,21.654,34.737,25.125,40.795C-997.289,4533.254-995.5,4530.511-993.031,4529.355Z" transform="translate(1024.631 -4490.599)" fill="#e29faa"/>
              </g>
            </g>
          </g>
          <g id="Grupo_29096" data-name="Grupo 29096" transform="translate(0 50.218)">
            <g id="Grupo_29095" data-name="Grupo 29095">
              <path id="Trazado_23237" data-name="Trazado 23237" d="M-1005.39,4526.8c-3.051-5.018-16.664-23.482-17.867-25.4-8.354-13.33-10.706-16.658-6.322-21.723,4.966-5.734,14.861,5.517,21.308,15.013,4.257,6.269,6.229,9.658,11.533,22.178C-996.115,4520.908-1001.374,4528.717-1005.39,4526.8Z" transform="translate(1031.744 -4478.115)" fill="#e56e6b"/>
            </g>
          </g>
          <g id="Grupo_29099" data-name="Grupo 29099" transform="translate(25.394 81.377)">
            <g id="Grupo_29098" data-name="Grupo 29098">
              <g id="Grupo_29097" data-name="Grupo 29097">
                <path id="Trazado_23238" data-name="Trazado 23238" d="M-933.455,4609.483c-1.17-1.077-4.1-4.778-3.125-6.914.82-1.79,1.789-1.9,1.786-1.9a181.029,181.029,0,0,1,28-5.919c7.838-.939,2.72,4.59,2.72,4.59C-912.142,4602.893-919.455,4606.9-933.455,4609.483Z" transform="translate(936.776 -4594.643)" fill="#e29faa"/>
              </g>
            </g>
          </g>
          <path id="Trazado_23239" data-name="Trazado 23239" d="M-821.048,4578.278c-1.823,1.483-3.553,3.11-3.317,3.82l.048.143.559-.135s-.5.3.218-.053l.169-.042a1.6,1.6,0,0,0-.427,1.794c.939,2.24,4.243.971,5.91.509a19.183,19.183,0,0,0,3.878-1.669c1.446-.774,2.991-3.714,1.768-5.211-1.253-1.535-2.763,1.015-3.778-.224-.563-.685.9-3.092-1.243-1.817C-817.686,4575.721-819.4,4576.941-821.048,4578.278Z" transform="translate(879.834 -4498.896)" fill="#e29faa"/>
          <g id="Grupo_29101" data-name="Grupo 29101" transform="translate(25.237 81.583)">
            <g id="Grupo_29100" data-name="Grupo 29100">
              <path id="Trazado_23240" data-name="Trazado 23240" d="M-908.922,4595.414c-7.692,1.009-17.341,2.092-27.121,4.919-1.645,2.4-.145,1.011-.965,2.8-.979,2.136.266,8.742,1.436,9.818,12.667-2.334,21.339-8.25,28.569-11.527Z" transform="translate(937.362 -4595.414)" fill="#e56e6b"/>
            </g>
          </g>
          <g id="Grupo_29103" data-name="Grupo 29103" transform="translate(50.367 81.583)">
            <g id="Grupo_29102" data-name="Grupo 29102">
              <path id="Trazado_23241" data-name="Trazado 23241" d="M-841.059,4602.828c1-.5,1.963-.975,2.9-1.4l-1.918-6.012c-1.064.14-2.172.3-3.31.472Z" transform="translate(843.382 -4595.414)" fill="#fff"/>
            </g>
          </g>
        </g>
      </g>
    </g>
  </g>
</svg>
